<svg id="Слой_1" data-name="Слой 1" xmlns="http://www.w3.org/2000/svg" viewBox="0 0 500 500"><defs><style>.cls-1{fill:#fff;}</style></defs><title>LegionAuto_logo</title><path d="M36.28,152,25.7,225.48c-.28,2.48,0,4.36.93,5.65s2.74,1.93,5.5,1.93H66.29l-.43,16.58q-9.57,1-20.72,1.21t-22,.21a22.66,22.66,0,0,1-11.36-2.71,16.33,16.33,0,0,1-7-7.58A20.31,20.31,0,0,1,3.55,229.2L14.27,152Z"/><path d="M118,178.17q13,0,20.08,2.79t9.51,8.29q2.43,5.5,1.14,13.51-1,6.57-4.36,10.36a20.07,20.07,0,0,1-9.22,5.64,68,68,0,0,1-14.86,2.58l-36,3,1.57-11.72,30.3-3a33.92,33.92,0,0,0,6.36-1.22,7.87,7.87,0,0,0,3.93-2.57,10,10,0,0,0,1.86-5.07q.57-3.44-.43-5.15a5,5,0,0,0-3.57-2.22,31.83,31.83,0,0,0-6.86-.35,27.13,27.13,0,0,0-7.43.86,10.4,10.4,0,0,0-5,3.07,16.84,16.84,0,0,0-3.29,6.29,84.48,84.48,0,0,0-2.43,10.5c-1,6.2-1.1,10.86-.43,14s2.14,5.24,4.43,6.29,5.48,1.57,9.58,1.57c2.28,0,5-.07,8.29-.22s6.55-.33,9.93-.57,6.45-.5,9.22-.78l1.43,13.14a49.85,49.85,0,0,1-9.72,3,93.94,93.94,0,0,1-11,1.64q-5.57.5-10.43.5-14.14,0-21.94-4.29A21,21,0,0,1,78.3,235.27q-2.58-8.51-1.14-20.94,1.28-11,4.35-18a28.09,28.09,0,0,1,8-10.93,29.69,29.69,0,0,1,12.08-5.57A73.43,73.43,0,0,1,118,178.17Z"/><path d="M212.65,180.89l20.86,1.28-8.72,61.32a55.84,55.84,0,0,1-5,17.65,32.23,32.23,0,0,1-9.07,11.29A33.27,33.27,0,0,1,198,278.36a73,73,0,0,1-15.8,1.86q-2.43,0-7.36-.14a86.81,86.81,0,0,1-10.5-1,54.78,54.78,0,0,1-10-2.43l1.29-12.15c1.71,0,3.45,0,5.22.07s3.83.07,6.21.07,5.34-.05,8.86-.14a48,48,0,0,0,17.51-3.15,17.18,17.18,0,0,0,10.08-10.71,61.33,61.33,0,0,0,2.64-8.58,27.9,27.9,0,0,1,3.08-7.86l-4-1.57Zm-17.87-2.72c4.95,0,9.89.2,14.79.58s9.44.88,13.58,1.5,7.55,1.26,10.22,1.92l-14.29,11.44q-5.87-.29-10.65-.36t-9.08-.07a35.94,35.94,0,0,0-8.64.86,10.46,10.46,0,0,0-5.36,3.07,16.12,16.12,0,0,0-3.22,6.29,80.21,80.21,0,0,0-2.21,10.65,81,81,0,0,0-1.36,13.5c.05,3.2.66,5.36,1.86,6.51s3,1.62,5.36,1.43a19.27,19.27,0,0,0,8.14-2.65,39.32,39.32,0,0,0,8.29-6.5,82.42,82.42,0,0,0,8.15-9.58l3.72,6.72A44.77,44.77,0,0,1,205.93,238a39.33,39.33,0,0,1-12.43,9.79,37.74,37.74,0,0,1-15.73,3.86q-8.86.13-13.79-3.79t-6.22-12.44q-1.27-8.49.72-21.51,1.86-12.28,5-19.43t7.65-10.65a23.41,23.41,0,0,1,10.43-4.57A74.05,74.05,0,0,1,194.78,178.17Z"/><path d="M272.39,180l-9.86,70.61h-21L251.38,180Zm-2.15-31.16q3.43,0,4.93,1.72c1,1.14,1.36,2.86,1.08,5.14l-1,7.58q-.87,6-7,6h-8.57q-6.87,0-6.15-6.86l1.14-7.57q.57-6,6.86-6Z"/><path d="M304,314.62c1.62,0,3.45.08,5.48.24s4.09.36,6.18.61,4.06.53,5.9.84,3.36.63,4.55.94l-9.46,7.49q-3.75-.18-6.84-.23c-2.06,0-4-.05-5.81-.05a25.33,25.33,0,0,0-5.25.47,7.19,7.19,0,0,0-3.56,1.83,10.2,10.2,0,0,0-2.34,4.07,40.84,40.84,0,0,0-1.59,7.31,75,75,0,0,0-.89,8.85q0,3,1.08,4.17a4.6,4.6,0,0,0,3.56,1,11.38,11.38,0,0,0,5.29-1.69,26,26,0,0,0,5.48-4.35,55,55,0,0,0,5.24-6.23l2.44,4.49a30.61,30.61,0,0,1-5.29,9.7,24.38,24.38,0,0,1-18.22,9.13q-6.09.28-9.32-2.43t-4-8.43a52.41,52.41,0,0,1,.57-14.34,47.77,47.77,0,0,1,3.42-12.69,16.8,16.8,0,0,1,5.57-7,18.82,18.82,0,0,1,7.82-3A64.11,64.11,0,0,1,304,314.62Zm8.43,1.78,13.68.85-6.28,44.87H309l.18-10.49-1.68-1.13Z"/><path d="M351,315.84l-4.41,30.64c-.25,1.93,0,3.27.61,4a4.09,4.09,0,0,0,3.23,1.13,12.37,12.37,0,0,0,6.42-1.88,59.77,59.77,0,0,0,7.92-6l2.06,6.93a52.31,52.31,0,0,1-11.53,9.6,21.87,21.87,0,0,1-11.05,3.14q-6.75,0-9.79-3.51t-2.11-9.7l4.78-34.38Zm30.44,0-6.37,46.28H364.2l.19-12.55-1.22-1.22,4.5-32.51Z"/><path d="M423.6,315.84l-1.32,9.09H387.44l1.12-8.62,9-.47ZM412.54,303l-6.37,44.59c-.25,1.69-.09,2.84.47,3.47s1.75.93,3.56.93h6.28l.65,9.46a31.15,31.15,0,0,1-4.26,1c-1.66.28-3.26.48-4.82.61s-2.85.18-3.85.18c-4.3,0-7.57-1.17-9.78-3.51s-3-5.51-2.39-9.51L398.86,303Z"/><path d="M452.35,314.62q8.53,0,13.68,2.49a13.06,13.06,0,0,1,7,7.91q1.83,5.44.52,14.62-1.23,8.7-4.17,13.91a16.9,16.9,0,0,1-8.29,7.45q-5.34,2.25-13.87,2.24t-13.63-2.43a13.25,13.25,0,0,1-7.12-7.87q-1.92-5.43-.7-14.43,1.31-8.81,4.22-14a17,17,0,0,1,8.38-7.54Q443.83,314.63,452.35,314.62Zm-.18,10.12a12.88,12.88,0,0,0-6,1.22,8.46,8.46,0,0,0-3.66,4.4,38.44,38.44,0,0,0-2.2,9.28,35.6,35.6,0,0,0-.42,8.33,5.11,5.11,0,0,0,2.2,4.13,10.91,10.91,0,0,0,5.53,1.12,12.26,12.26,0,0,0,6-1.26,8.61,8.61,0,0,0,3.56-4.45,39.13,39.13,0,0,0,2.16-9,37.1,37.1,0,0,0,.42-8.48,5.26,5.26,0,0,0-2.16-4.12A10,10,0,0,0,452.17,324.74Z"/><polygon points="496.76 136.57 474.13 292.52 345.82 292.52 368.45 136.57 496.76 136.57"/><polygon points="427.29 136.57 404.66 292.52 276.34 292.52 298.97 136.57 427.29 136.57"/><path class="cls-1" d="M347.8,177.46q13,0,20.86,3.79a20,20,0,0,1,10.65,12.07q2.79,8.3.79,22.3-1.86,13.29-6.36,21.22a25.77,25.77,0,0,1-12.65,11.37q-8.14,3.42-21.16,3.42-12.85,0-20.79-3.71a20.17,20.17,0,0,1-10.86-12q-2.94-8.28-1.08-22,2-13.43,6.44-21.36A25.9,25.9,0,0,1,326.43,181Q334.79,177.46,347.8,177.46Zm-.29,15.43a19.78,19.78,0,0,0-9.22,1.86q-3.5,1.86-5.57,6.72c-1.39,3.24-2.5,8-3.36,14.15a54.4,54.4,0,0,0-.65,12.72c.34,3,1.46,5.14,3.36,6.29s4.72,1.71,8.44,1.71a18.55,18.55,0,0,0,9.14-1.93q3.44-1.92,5.43-6.79a59.92,59.92,0,0,0,3.29-13.72A57.16,57.16,0,0,0,359,201c-.34-3-1.43-5.1-3.29-6.29S351.13,192.89,347.51,192.89Z"/><path class="cls-1" d="M416,179.32V197.9l1.71,2-7,50H389.53l9.86-70.6Zm32.3-1.86a21.93,21.93,0,0,1,10.15,2.21,13.61,13.61,0,0,1,6.29,6.65q2,4.43,1.14,11.15l-7.43,52.45h-21.3l6.58-46c.47-3.24.31-5.5-.5-6.79s-2.55-1.88-5.22-1.79a22.26,22.26,0,0,0-9.93,3,89.81,89.81,0,0,0-12.65,8.87L413,196.47a71.53,71.53,0,0,1,17.51-14A36.76,36.76,0,0,1,448.27,177.46Z"/></svg>