<?xml version="1.0" encoding="utf-8"?>
<!-- Generator: Adobe Illustrator 23.0.1, SVG Export Plug-In . SVG Version: 6.00 Build 0)  -->
<svg version="1.1" id="Слой_1" xmlns="http://www.w3.org/2000/svg" xmlns:xlink="http://www.w3.org/1999/xlink" x="0px" y="0px"
	 viewBox="0 0 500 500" style="enable-background:new 0 0 500 500;" xml:space="preserve">
<style type="text/css">
	.st0{fill:#FFFFFF;}
</style>
<g>
	<g>
		<path d="M36.3,152l-10.6,73.5c-0.3,2.5,0,4.4,0.9,5.6c0.9,1.3,2.7,1.9,5.5,1.9h34.2l-0.4,16.6c-6.4,0.7-13.3,1.1-20.7,1.2
			c-7.4,0.1-14.8,0.2-22,0.2c-4.4,0-8.2-0.9-11.4-2.7c-3.2-1.8-5.5-4.3-7-7.6c-1.5-3.2-1.9-7.1-1.2-11.6L14.3,152H36.3z"/>
		<path d="M118,178.2c8.7,0,15.4,0.9,20.1,2.8c4.7,1.9,7.9,4.6,9.5,8.3c1.6,3.7,2,8.2,1.1,13.5c-0.7,4.4-2.1,7.8-4.4,10.4
			c-2.2,2.5-5.3,4.4-9.2,5.6c-3.9,1.2-8.9,2.1-14.9,2.6l-36,3l1.6-11.7l30.3-3c2.6-0.3,4.7-0.7,6.4-1.2c1.7-0.5,3-1.4,3.9-2.6
			c1-1.2,1.6-2.9,1.9-5.1c0.4-2.3,0.2-4-0.4-5.1c-0.7-1.1-1.9-1.9-3.6-2.2c-1.7-0.3-4-0.5-6.9-0.4c-3,0-5.4,0.3-7.4,0.9
			c-2,0.6-3.7,1.6-5,3.1c-1.3,1.5-2.4,3.6-3.3,6.3c-0.9,2.7-1.7,6.2-2.4,10.5c-1,6.2-1.1,10.9-0.4,14c0.7,3.1,2.1,5.2,4.4,6.3
			c2.3,1.1,5.5,1.6,9.6,1.6c2.3,0,5-0.1,8.3-0.2c3.2-0.1,6.6-0.3,9.9-0.6c3.4-0.2,6.5-0.5,9.2-0.8l1.4,13.1c-2.9,1.2-6.1,2.2-9.7,3
			c-3.6,0.8-7.3,1.3-11,1.6c-3.7,0.3-7.2,0.5-10.4,0.5c-9.4,0-16.7-1.4-21.9-4.3c-5.2-2.9-8.6-7.1-10.4-12.8
			c-1.7-5.7-2.1-12.6-1.1-20.9c0.9-7.3,2.3-13.3,4.4-18c2-4.7,4.7-8.3,8-10.9c3.3-2.6,7.3-4.5,12.1-5.6
			C106.4,178.7,111.8,178.2,118,178.2z"/>
		<path d="M212.6,180.9l20.9,1.3l-8.7,61.3c-1,7.1-2.6,12.9-5,17.7c-2.4,4.7-5.4,8.5-9.1,11.3c-3.7,2.8-7.9,4.8-12.7,5.9
			c-4.8,1.1-10.1,1.8-15.8,1.9c-1.6,0-4.1,0-7.4-0.1c-3.3-0.1-6.8-0.4-10.5-1c-3.7-0.6-7.1-1.4-10-2.4l1.3-12.1c1.7,0,3.5,0,5.2,0.1
			c1.8,0,3.8,0.1,6.2,0.1c2.4,0,5.3,0,8.9-0.1c6.8-0.1,12.6-1.1,17.5-3.1c4.9-2,8.3-5.6,10.1-10.7c1.1-3,2-5.8,2.6-8.6
			c0.6-2.8,1.6-5.4,3.1-7.9l-4-1.6L212.6,180.9z M194.8,178.2c5,0,9.9,0.2,14.8,0.6c4.9,0.4,9.4,0.9,13.6,1.5
			c4.1,0.6,7.5,1.3,10.2,1.9l-14.3,11.4c-3.9-0.2-7.5-0.3-10.6-0.4c-3.2,0-6.2-0.1-9.1-0.1c-3.5,0-6.4,0.3-8.6,0.9
			c-2.2,0.6-4,1.6-5.4,3.1c-1.3,1.5-2.4,3.6-3.2,6.3c-0.8,2.7-1.5,6.3-2.2,10.6c-1,5.8-1.4,10.3-1.4,13.5c0,3.2,0.7,5.4,1.9,6.5
			c1.2,1.1,3,1.6,5.4,1.4c2.7-0.2,5.4-1.1,8.1-2.6c2.8-1.6,5.5-3.7,8.3-6.5c2.8-2.8,5.5-6,8.1-9.6l3.7,6.7
			c-1.9,5.5-4.6,10.4-8.1,14.5c-3.5,4.1-7.7,7.4-12.4,9.8c-4.8,2.4-10,3.7-15.7,3.9c-5.9,0.1-10.5-1.2-13.8-3.8
			c-3.3-2.6-5.4-6.8-6.2-12.4c-0.9-5.7-0.6-12.8,0.7-21.5c1.2-8.2,2.9-14.7,5-19.4c2.1-4.8,4.6-8.3,7.6-10.6c3-2.3,6.5-3.9,10.4-4.6
			C185.5,178.5,189.9,178.2,194.8,178.2z"/>
		<path d="M272.4,180l-9.9,70.6h-21l9.9-70.6H272.4z M270.2,148.9c2.3,0,3.9,0.6,4.9,1.7c1,1.1,1.4,2.9,1.1,5.1l-1,7.6
			c-0.6,4-2.9,6-7,6h-8.6c-4.6,0-6.6-2.3-6.1-6.9l1.1-7.6c0.4-4,2.7-6,6.9-6H270.2z"/>
	</g>
	<g>
		<path d="M304,314.6c1.6,0,3.4,0.1,5.5,0.2c2,0.2,4.1,0.4,6.2,0.6c2.1,0.3,4.1,0.5,5.9,0.8c1.8,0.3,3.4,0.6,4.5,0.9l-9.5,7.5
			c-2.5-0.1-4.8-0.2-6.8-0.2c-2.1,0-4,0-5.8,0c-2.1,0-3.8,0.2-5.2,0.5c-1.4,0.3-2.6,0.9-3.6,1.8c-0.9,0.9-1.7,2.3-2.3,4.1
			c-0.6,1.8-1.2,4.2-1.6,7.3c-0.6,3.9-0.9,6.8-0.9,8.9c0,2,0.3,3.4,1.1,4.2c0.7,0.7,1.9,1.1,3.6,1c1.7-0.1,3.4-0.6,5.3-1.7
			c1.8-1.1,3.7-2.5,5.5-4.4c1.8-1.8,3.6-3.9,5.2-6.2l2.4,4.5c-1.3,3.7-3,6.9-5.3,9.7c-2.3,2.8-5,5-8,6.5c-3.1,1.6-6.5,2.4-10.2,2.6
			c-4.1,0.2-7.2-0.6-9.3-2.4c-2.2-1.8-3.5-4.6-4-8.4c-0.5-3.8-0.3-8.6,0.6-14.3c0.8-5.3,2-9.5,3.4-12.7c1.5-3.2,3.3-5.5,5.6-7
			c2.2-1.5,4.9-2.5,7.8-3C297,314.9,300.3,314.6,304,314.6z M312.4,316.4l13.7,0.8l-6.3,44.9H309l0.2-10.5l-1.7-1.1L312.4,316.4z"/>
		<path d="M351,315.8l-4.4,30.6c-0.3,1.9,0,3.3,0.6,4c0.7,0.7,1.7,1.1,3.2,1.1c2.2,0,4.3-0.6,6.4-1.9c2.1-1.2,4.7-3.2,7.9-6l2.1,6.9
			c-4.1,4.3-7.9,7.5-11.5,9.6c-3.6,2.1-7.3,3.1-11.1,3.1c-4.5,0-7.8-1.2-9.8-3.5c-2-2.3-2.7-5.6-2.1-9.7l4.8-34.4H351z M381.4,315.8
			l-6.4,46.3h-10.9l0.2-12.6l-1.2-1.2l4.5-32.5H381.4z"/>
		<path d="M423.6,315.8l-1.3,9.1h-34.8l1.1-8.6l9-0.5H423.6z M412.5,303l-6.4,44.6c-0.3,1.7-0.1,2.8,0.5,3.5
			c0.6,0.6,1.7,0.9,3.6,0.9h6.3l0.7,9.5c-1.2,0.4-2.6,0.7-4.3,1c-1.7,0.3-3.3,0.5-4.8,0.6c-1.6,0.1-2.8,0.2-3.8,0.2
			c-4.3,0-7.6-1.2-9.8-3.5c-2.2-2.3-3-5.5-2.4-9.5l6.8-47.2H412.5z"/>
		<path d="M452.4,314.6c5.7,0,10.2,0.8,13.7,2.5c3.4,1.7,5.8,4.3,7,7.9c1.2,3.6,1.4,8.5,0.5,14.6c-0.8,5.8-2.2,10.4-4.2,13.9
			c-2,3.5-4.7,5.9-8.3,7.4c-3.6,1.5-8.2,2.2-13.9,2.2c-5.6,0-10.2-0.8-13.6-2.4c-3.5-1.6-5.8-4.2-7.1-7.9c-1.3-3.6-1.5-8.4-0.7-14.4
			c0.9-5.9,2.3-10.5,4.2-14c1.9-3.5,4.7-6,8.4-7.5C442,315.4,446.7,314.6,452.4,314.6z M452.2,324.7c-2.5,0-4.5,0.4-6,1.2
			c-1.5,0.8-2.7,2.3-3.7,4.4c-0.9,2.1-1.6,5.2-2.2,9.3c-0.5,3.6-0.6,6.3-0.4,8.3c0.2,2,1,3.4,2.2,4.1c1.2,0.7,3.1,1.1,5.5,1.1
			c2.5,0,4.5-0.4,6-1.3c1.5-0.8,2.7-2.3,3.6-4.4c0.9-2.1,1.6-5.1,2.2-9c0.5-3.7,0.6-6.5,0.4-8.5c-0.2-2-0.9-3.3-2.2-4.1
			C456.3,325.1,454.5,324.7,452.2,324.7z"/>
	</g>
	<g>
		<polygon points="496.8,136.6 474.1,292.5 345.8,292.5 368.4,136.6 		"/>
		<polygon points="427.3,136.6 404.7,292.5 276.3,292.5 299,136.6 		"/>
		<g>
			<path class="st0" d="M347.8,177.5c8.7,0,15.6,1.3,20.9,3.8c5.2,2.5,8.8,6.6,10.6,12.1c1.9,5.5,2.1,13,0.8,22.3
				c-1.2,8.9-3.4,15.9-6.4,21.2c-3,5.3-7.2,9.1-12.6,11.4c-5.4,2.3-12.5,3.4-21.2,3.4c-8.6,0-15.5-1.2-20.8-3.7
				c-5.3-2.5-8.9-6.5-10.9-12c-2-5.5-2.3-12.9-1.1-22c1.3-9,3.5-16.1,6.4-21.4c3-5.3,7.2-9.1,12.8-11.5
				C332,178.7,339.1,177.5,347.8,177.5z M347.5,192.9c-3.8,0-6.9,0.6-9.2,1.9c-2.3,1.2-4.2,3.5-5.6,6.7c-1.4,3.2-2.5,8-3.4,14.1
				c-0.8,5.4-1,9.7-0.6,12.7c0.3,3,1.5,5.1,3.4,6.3c1.9,1.1,4.7,1.7,8.4,1.7c3.8,0,6.9-0.6,9.1-1.9c2.3-1.3,4.1-3.5,5.4-6.8
				c1.3-3.2,2.4-7.8,3.3-13.7c0.8-5.6,1-9.9,0.6-12.9c-0.3-3-1.4-5.1-3.3-6.3C353.9,193.5,351.1,192.9,347.5,192.9z"/>
			<path class="st0" d="M416,179.3v18.6l1.7,2l-7,50h-21.2l9.9-70.6H416z M448.3,177.5c3.9,0,7.3,0.7,10.1,2.2
				c2.9,1.5,5,3.7,6.3,6.6c1.3,3,1.7,6.7,1.1,11.1l-7.4,52.5h-21.3l6.6-46c0.5-3.2,0.3-5.5-0.5-6.8c-0.8-1.3-2.6-1.9-5.2-1.8
				c-3.1,0.1-6.5,1.1-9.9,3c-3.5,1.9-7.7,4.9-12.6,8.9l-2.4-10.7c5.6-6,11.5-10.7,17.5-14C436.5,179.1,442.5,177.5,448.3,177.5z"/>
		</g>
	</g>
</g>
</svg>
